<?xml version="1.0" standalone="no"?>
<!DOCTYPE svg PUBLIC "-//W3C//DTD SVG 20010904//EN"
 "http://www.w3.org/TR/2001/REC-SVG-20010904/DTD/svg10.dtd">
<svg version="1.0" xmlns="http://www.w3.org/2000/svg"
 width="612.000000pt" height="612.000000pt" viewBox="0 0 612.000000 612.000000"
 preserveAspectRatio="xMidYMid meet">

<style>
path {
    fill: #000000;
}
@media (prefers-color-scheme: dark) {
    path {
        fill: #ffffff;
    }
}
</style>

<g transform="translate(0.000000,612.000000) scale(0.100000,-0.100000)"
fill="#000000" stroke="none">
<path d="M500 4660 l0 -960 160 0 160 0 0 -160 0 -160 -160 0 -160 0 0 -960 0
-960 160 0 160 0 0 -160 0 -160 160 0 160 0 0 -160 0 -160 320 0 320 0 0 -160
0 -160 1280 0 1280 0 0 160 0 160 320 0 320 0 0 160 0 160 160 0 160 0 0 160
0 160 160 0 160 0 0 960 0 960 -160 0 -160 0 0 160 0 160 160 0 160 0 0 960 0
960 -320 0 -320 0 0 -160 0 -160 -160 0 -160 0 0 -160 0 -160 -160 0 -160 0 0
-160 0 -160 -1280 0 -1280 0 0 160 0 160 -160 0 -160 0 0 160 0 160 -160 0
-160 0 0 160 0 160 -320 0 -320 0 0 -960z"/>
</g>
</svg>
